<svg xmlns="http://www.w3.org/2000/svg" viewBox="0 0 620 620">
  <rect width="620" height="620" fill="#000"/>
  <g transform="translate(58 56)">
    <path fill="#fff" d="M428 184 267.7 13.6c-9-8.3-22.9-8.3-31.9 0L73 183.6c-38.2 35.4-54.5 94.2-22.6 153.6 20.2 37.7 58.7 63.1 101.5 64.7 27.8 1.1 38.8-8.2 54.9-23.3 4.3-4 11.2-1 11.2 4.8v28.5c0 15.4-4 30.5-11.6 43.9l-14.8 25.8c-3.2 5.6.8 12.6 7.3 12.6h105.4c6.4 0 10.5-7 7.3-12.6L297 456c-7.6-13.4-11.6-28.5-11.6-43.9v-28.8c0-5.7 6.9-8.5 10.9-4.6 15.7 15.1 25.1 24.5 53.2 23.3 41.4-1.7 79.8-24.2 101.2-59.7C487.4 281.3 467.3 220.1 428 183.7z"/>
    <text x="252" y="280" text-anchor="middle"
          font-family="'Helvetica Neue', Helvetica, Arial, sans-serif"
          font-weight="700" font-size="70" fill="#2d7ecf" letter-spacing="10">SEEP</text>
  </g>
</svg>
